<?xml version="1.0" encoding="UTF-8" standalone="no"?>
<svg viewBox="0 0 239 211" xmlns="http://www.w3.org/2000/svg">
<g fill="#1a1a1a" transform="matrix(1.33981,0,0,1.26115,84.19788,-4.31763)">
<g stroke="#1a1a1a">
<g stroke="none">
<path d="m-60.70532,151.86241c-.71881-1.55748-1.42079-3.44166-1.55996-4.18707-.44003-2.35692-.47557-2.36192-4.77293-.67101-2.18677.86044-4.72619,1.65045-5.64316,1.75557l-1.66721.19113 .27577-1.83897c.68519-4.56919 5.14931-16.17422 7.82678-20.3467 .61857-.96396 1.12467-1.85385 1.12467-1.97754s-.89817-.41157-1.99594-.63972c-4.19004-.87082-10.14239-4.51842-13.77338-8.44033-2.4155-2.60902-5.13427-7.80236-5.42227-10.35749-.31369-2.78302-.11772-2.69635 9.78619,4.32791 1.15004.81566 2.14452,1.33177 2.20994,1.14691s-.31951-1.72409-.8554-3.4205c-1.79166-5.67159-1.30932-13.10261 1.67827-25.85595 .85721-3.65923 1.74618-7.50856 1.9755-8.55405 .23273-1.06103.43625-6.10025.46062-11.40541 .0399-8.69301.1086-9.63434.80404-11.02523 1.03111-2.06223 2.01149-2.14465 3.62681-.3049 1.89708,2.16066 5.28849,9.6213 8.3003,18.25953 1.47461,4.22937 2.95314,8.21581 3.28562,8.85875 .58024,1.12207 1.5271,1.81496 1.92984,1.41222 .10547-.10547.68454-2.07001 1.28683-4.36565 1.22065-4.65257 2.0202-6.77355 2.93411-7.78341 1.27771-1.41185 1.74531-.62283 2.799,4.72298 1.43843,7.29775 1.66925,7.5331 5.52604,5.6344 2.02623-.99751 2.82011-1.69672 4.68123-4.12297 1.23266-1.60696 3.04591-3.69161 4.02944-4.63256l1.78825-1.71081-.21632,1.14054c-.62122,3.27535-.68169,3.99189-.33691,3.99189 .7038,0 3.31149-2.3402 4.55212-4.08518 1.716-2.4136 1.64208-3.70857-.45802-8.02345-2.38121-4.89245-3.06307-7.38122-2.51943-9.19574 .60009-2.00291 1.79568-2.62885 5.8576-3.06666 3.96155-.427 7.53782-1.23284 20.79565-4.6859 5.12293-1.33429 10.93969-2.78843 12.92613-3.23143s3.84226-.95009 4.12404-1.12689c.31506-.19767 1.15411-3.7441 2.17906-9.21031 .91669-4.88888 1.72384-9.14549 1.79366-9.45913 .0713-.32023 1.03192.83312 2.19096,2.63052l2.064,3.20079 .46398-2.06025c.25519-1.13314.65889-5.04719.89712-8.6979 .42442-6.50401.74711-8.37947 1.44177-8.37947 .5343,0 6.5131,6.41363 8.71794,9.35197 2.47985,3.30485 3.84097,5.85593 5.54416,10.39114 1.77918,4.73757 2.1361,5.06857 5.42657,5.03242 3.84623-.04226 5.45252-.72507 6.49775-2.76213 2.27698-4.43763 3.70533-14.20866 3.32507-22.74612l-.22983-5.16007 1.39024,1.52072c7.22962,7.90813 14.15374,20.93278 15.76459,29.65405 .54196,2.93424 1.13819,4.45347 1.66821,4.25071 2.63782-1.00911 4.41772-1.52114 4.61208-1.32678 .13062.13062-.12652,1.9176-.57142,3.97106s-.81374,4.74206-.81963,5.97464c-.009,1.94187.16603,2.5013 1.31319,4.19022 4.22188,6.21575 7.52202,16.8287 5.89913,18.97106-.47977.63335-.61957.63706-2.30917.06136-.98915-.33704-1.97713-.55324-2.19551-.48045s.57886,1.67045 1.77163,3.55035c3.43982,5.42146 4.19379,7.35734 5.23712,13.44676l.2201,1.2846-1.95451-.25927c-1.07498-.1426-2.44376-.35713-3.04173-.47672-1.5483-.30966-1.42169.47594.57574,3.5725 2.02603,3.14088 4.34201,7.74954 5.68973,11.32221 1.37867,3.65471 2.59854,9.31442 2.00759,9.31442-.24703,0-1.8437-.58815-3.54814-1.30699l-3.09899-1.30699 2.05986,4.25338c2.38876,4.93254 3.08383,7.36704 3.60234,12.61735 .63255,6.40513.66543,7.03333.36814,7.03333-.15809,0-1.28181-.59878-2.49716-1.33063s-2.43364-1.33063-2.70732-1.33063c-.6704,0-.62617,1.162.1425,3.74329 .88683,2.97811.97991,12.82835.12027,12.72795-.31365-.0367-1.89162-.62569-3.50661-1.30901s-3.05178-1.12696-3.19288-.98586c-.40445.40445 3.26224,6.20014 5.46391,8.6364 1.09777,1.21475 1.99594,2.47785 1.99594,2.8069 0,2.79758-14.98974-.75095-21.48018-5.08502-1.25459-.83777-2.49493-1.52376-2.7563-1.52443-.28189-.00076-.47734.50148-.48042,1.23438-.007,1.65793-.35501,2.85775-.88768,3.06008-.77379.29393-4.53993-.84284-7.36062-2.22172-1.50748-.73693-3.8816-2.2749-5.27582-3.41772s-2.73896-2.07785-2.98831-2.07785-.83345.43713-1.29798.97139c-.74569.85761-1.03772.94244-2.49323.72417-2.00143-.30013-2.73068.26773-6.60003,5.1394-3.91592,4.9303-4.87116,4.96839-9.71084.38724-1.76648-1.67212-3.30917-3.04022-3.42822-3.04022s-.26702,1.08454-.32885,2.41009l-.11242,2.41009-3.99189-2.18442c-2.19554-1.20143-4.35222-2.28969-4.79262-2.41836-.55603-.16244-1.39728.17643-2.75286,1.1089-5.10829,3.51389-11.00638,3.0406-19.06713-1.53002-7.33309-4.15802-10.84285-3.68834-17.78186,2.37959-2.73633,2.39283-2.50535,2.44674-5.27697-1.2317-1.01364-1.34527-1.9735-2.45021-2.13302-2.45542s-3.23517,1.95592-6.83475,4.35806l-6.54469,4.36754-1.14904-3.66279-1.14904-3.66279-1.33063,1.07135c-.73185.58924-2.56641,2.2735-4.07681,3.74279l-2.74617,2.67145-1.30693-2.83177zm57.17315-19.52739c0-1.82224-7.80013-6.2814-15.01712-8.58493-3.94746-1.25997-9.60164-1.77775-10.39452-.95189-.56315.58658.3111,4.69916 1.04759,4.92799 .33153.10301 2.82814.35499 5.54801.55995 5.20967.39259 7.68805,1.0027 13.11334,3.2282 3.44592,1.41354 5.7027,1.73831 5.7027.82068zm-42.59355-5.13975c.57554-1.07542.48065-2.29652-.19872-2.55722-.76827-.29481-4.54702.71307-4.51769,1.20497 .0361.60521 2.48024,2.08761 3.442,2.08761 .48447,0 1.05795-.33091 1.27441-.73536zm41.86483-9.86525c-2.8958-4.06678-10.03842-7.03272-11.64543-4.83572-.29019.39673-.44961.84754-.35427,1.00181 .34564.55925 11.15079,4.88542 12.27908,4.9163 .34701.01.2611-.32336-.27938-1.08239zm-52.87668-1.93572c-2.55449-1.05754-6.41487-1.6724-7.95793-1.2675-3.41501.8961-.26881,1.90994 6.05703,1.95184l3.61171.0239-1.71081-.70826zm8.36396.44057c0-.60542-3.03251-2.02498-3.80327-1.78035-.93561.29696-1.00184,1.5911-.0936,1.82846 1.17249.3064 3.89685.27277 3.89685-.0481z" fill="#502d16" stroke="none" transform="translate(24.33153,11.78558)"/>
<path d="m-16.2632,139.72432c-1.41751-2.29358-.87787-29.32996.76093-38.12311 1.12751-6.04974 3.27313-13.20932 3.95865-13.20932 .4774,0 .78195,4.60856.79137,11.97568 .0113,8.8324.64837,27.21013 1.14809,33.11938 .40775,4.82169.15263,6.60944-.94318,6.60944-1.19199,0-1.93768-2.17761-2.73392-7.98378l-.28675-2.09099-.2713,1.9009c-.14922,1.0455-.28881,2.84185-.31022,3.99189-.05293,2.84453-1.30997,5.11034-2.11368,3.80991z" fill="#fff" stroke="none"/>
<path d="m-35.84748,119.55776c-2.57859-.89608-3.56144-.92889-4.21554-.14075-.38933.46911-.98801.5708-2.58214.4386-3.80057-.31517-4.8084-2.58141-4.77797-10.7439 .01746-4.68492.20852-6.25616 1.59488-13.11622 2.07868-10.28582 2.38618-12.50773 2.60446-18.81892 .2289-6.61815.49318-9.31442.91297-9.31442 1.04448,0 10.74489,30.78399 12.32472,39.11218 1.07329,5.65792.69031,10.1061-1.03178,11.98372-1.17822,1.28463-2.41624,1.43836-4.8296.5997zm2.29185-7.25941c.52976-2.2083.33827-3.8392-1.15532-9.83979-.59853-2.40464-1.20675-5.44133-1.35158-6.7482s-.43943-2.37613-.65466-2.37613c-.72634,0 .31604,20.46685 1.10761,21.74763 .42228.68326 1.60766-.92317 2.05395-2.78351zm-8.5731,1.85075c.14877-.47048.33218-5.56014.40756-11.31036l.13706-10.45496-1.53896,5.89279c-1.35237,5.17832-1.54622,6.45239-1.59881,10.50827s.028,4.71276.6644,5.41756c.93511,1.03563 1.59013,1.01753 1.92875-.0533z" fill="#f1c80e" stroke="none"/>
<path d="m-25.70935,89.65916c-.41382-.41382-.29253-1.90587.36902-4.53954 .34236-1.36295.74831-2.33906.90211-2.16912s.3768,1.54721.49556,3.06062c.16967,2.16231.09278,2.8748-.359,3.32658-.62563.62563-1.01468.71447-1.40769.32146z" fill="#fff" stroke="none"/>
<path d="m-26.73168,103.57274c-.47985-.31458-.45089-.45661.19861-.97413 1.18497-.9442 3.67612-1.98147 5.43372-2.26252 1.54559-.24715 1.59962-.22133 1.59962.76463 0,.83835-.28829,1.14404-1.61577,1.7133-2.00841.86127-4.87006,1.24786-5.61618.75872z" fill="#f1c80e" stroke="none"/>
<path d="m-26.07389,122.4427c-.52038-.52038-.52264-.79992-.02091-2.58516 .30941-1.10093.68237-4.60874.82878-7.79514 .23956-5.21354.3476-5.87486 1.07935-6.6066 .52278-.52278 1.33508-.82976 2.27481-.8597l1.46167-.0465 .12192,2.66126c.15452,3.37281-.56151,11.73572-1.19199,13.9219-.46944,1.62779-.51981,1.66807-2.22524,1.77948-1.18573.0775-1.93191-.073-2.3284-.46949z" fill="#f1c80e" stroke="none"/>
<path d="m-33.24508,132.82006c-7.09277-.81315-14.06674-3.3753-18.85511-6.92714-4.32628-3.20907-2.73915-3.4004 3.84107-.46303 2.53987,1.13378 5.38781,2.28712 6.32876,2.56296 2.11887.62116 12.48211.59351 17.05285-.0455 1.74695-.24423 3.26724-.35309 3.37842-.24192 .5233.5233.15874,3.37532-.51795,4.052-1.35944,1.35944-5.34712,1.73683-11.22803,1.06262z" fill="#f00" stroke="none"/>
<path d="m26.85988,143.02999c-1.13775-.68661-4.29268-2.75879-7.01097-4.60485-8.02933-5.45291-11.57136-6.9752-18.62883-8.00628-5.92988-.86634-6.55253-1.11269-7.01126-2.77407-.50942-1.84497-.0231-2.43421 1.6135-1.95496 .66868.19581 4.06257.59945 7.54197.89698 10.40271.88956 13.30572,1.98184 20.53439,7.72619 2.59998,2.06612 4.88445,4.47663 4.88445,5.15396 0,.69135-1.32094.0474-3.66789-1.78817-5.10235-3.99053-12.08329-8.10948-13.14463-7.7557-.2276.0759 1.62299,1.48352 4.11242,3.12811 5.64168,3.72708 8.47659,5.86806 11.27443,8.51468 3.16241,2.99149 2.97025,3.55691-.49759,1.46411z" fill="#f00" stroke="none"/>
<path d="m-22.86275,157.46522c-.22807-.27481-.66561-1.57532-.9723-2.89002s-.65804-2.49078-.78076-2.6135c-.26215-.26215-2.95633.99771-5.90915,2.76325-3.15693,1.88759-3.72056,1.98118-4.21072.69922-.38504-1.00703.08379-4.00855.98089-6.27984 .17937-.45413-.95884-.0297-3.82313,1.42568-5.80772,2.95093-7.12634,2.73625-6.28386-1.02303 1.04531-4.66437 4.28723-10.40063 6.53498-11.56299 1.45507-.75244 3.88144-.85702 4.67149-.20134 .81353.67517.7759.91726-.35063,2.25607-.52814.62767-.80225,1.23887-.60913,1.35822 1.90398,1.17673 25.74481,1.66863 29.70272.61285 2.9709-.79249 7.92347-.64889 11.73219.34019 1.74798.45392 6.13429,2.02033 9.74736,3.4809 9.21667,3.7258 12.14277,4.08695 14.11574,1.74221 .83947-.99765.95079-1.41177.75785-2.81937-.54082-3.9457-5.50596-13.93562-8.61928-17.34209-1.89176-2.06989-5.96772-4.92915-9.74898-6.83887-2.19928-1.11073-2.74036-1.79023-2.48583-3.12172 .2222-1.16236.87689-1.68686 2.58697-2.07255 1.91677-.4323 4.49422.3114 7.63617,2.20336 1.43068.8615 4.44199,2.27773 6.6918,3.14717 4.25715,1.64518 6.54399,3.24976 6.1383,4.30698-.24901.64889-2.37371,1.36839-4.05094,1.37179-1.90955.004-1.08592.64431 2.6407,2.05335 4.36061,1.64876 6.03796,2.81547 6.39684,4.44942 .41335,1.88201-.34076,2.35175-3.07888,1.91785-1.23855-.19627-2.31031-.30171-2.38169-.23431s1.1874,1.53101 2.7973,3.25249c6.44611,6.89283 6.91646,9.25466 1.27601,6.40737-1.26927-.64073-2.17555-.94012-2.01394-.66532s.92467,1.44059 1.6957,2.59064c3.13089,4.6699 4.38123,8.36252 2.93307,8.66218-.36579.0757-2.17783-.55923-4.02677-1.41093-3.75409-1.7293-4.09018-1.77658-7.08449-.99666-2.04299.53213-2.24437.51318-5.62621-.52934-3.53891-1.09095-3.96652-1.14565-3.53821-.45264 .58101.9401 4.69911,2.05107 8.29976,2.23909 3.81618.19927 4.48666.56248 2.8849,1.5628-1.37916.86129-4.80662.96244-7.72894.22808-1.4619-.36737-5.73893-1.86285-9.50451-3.32329s-7.47606-2.73983-8.24552-2.84308c-1.84628-.24775-3.07492.21603-8.34028,3.14826-2.42923,1.35282-4.67269,2.45967-4.98547,2.45967-.49607,0-1.2327-1.37527-2.7976-5.22304-.32942-.80998-.51093-.70354-3.76771,2.20944-3.5487,3.17409-7.52669,6.05504-8.36074,6.05504-.26422,0-.667-.22484-.89507-.49964z" fill="#c87137" stroke="none"/>
<path d="m38.28399,128.73405c-1.31531-.71341-1.32591-.73983-1.20638-3.00607 .11658-2.21034.0769-2.32118-1.19359-3.33494-.7228-.57673-3.08666-1.79584-5.25302-2.70912s-5.56412-2.49607-7.55056-3.51729-4.88715-2.24104-6.44602-2.71071c-3.37488-1.01681-4.5792-2.05249-4.5792-3.93798 0-1.69893.78114-2.23577 4.77677-3.28286 3.64665-.95564 6.70893-.79952 10.65692.54328 5.20324,1.76973 7.7573,3.48608 7.7573,5.21297 0,.89694.63945,1.79618 3.09921,4.35832 1.70456,1.77551 3.01025,3.31716 2.90152,3.42589s-.94736.0249-1.86362-.18639-1.87451-.38826-2.12943-.39337c-.26789-.005.34086,1.63527 1.44244,3.88755 1.83688,3.75566 2.28722,5.92152 1.29847,6.24492-.21111.069-.98098-.19834-1.71081-.5942z" fill="#f1c80e" stroke="none"/>
<path d="m-2.86686,123.74311c-1.06894-.66263-.7905-1.03232 1.30068-1.7269 4.26734-1.41738 6.77221-5.20477 7.07827-10.70246 .15231-2.73585.0487-3.43277-.84053-5.65405-.55784-1.39346-.93008-2.61775-.82719-2.72063s.77657.17727 1.49707.62256c2.80849,1.73575 4.67678,5.56768 4.32943,8.87983-.46038,4.38987-2.95839,8.85186-5.85166,10.45231-1.77476.98174-5.67354,1.47701-6.68607.84934z" fill="#fff" stroke="none"/>
<path d="m-6.71015,120.23198c-.35347-.56596-.76221-3.77706-1.20797-9.48991-.56012-7.17855-.5889-8.73671-.17066-9.24065 .92161-1.11048 8.42993-5.91506 12.20125-7.8076l3.72149-1.86753 5.09212,2.41384c7.25847,3.44076 9.71276,4.21471 13.38588,4.22118 3.44183.0061 4.52367-.345 8.42094-2.73264 3.55422-2.17748 4.61963-2.46051 7.26343-1.92956l2.13135.42804-1.49434,1.29596c-3.21665,2.78961-11.80534,6.01995-17.12975,6.44277-3.37284.26784-6.59408-.63259-12.04029-3.36563-2.07292-1.04024-3.8531-1.80719-3.95595-1.70433-.34318.34318 3.75328,3.95572 5.25196,4.63153 .81283.36653 1.47788.79582 1.47788.95397 0,.3287-4.39393,1.87806-5.32612,1.87806-.33897,0-2.11115-.78219-3.93817-1.7382-3.0476-1.5947-7.43498-3.35953-7.69798-3.09653-.06027.06027.65019,1.3866 1.57881,2.94738 1.79185,3.01168 2.09073,4.50788 1.07022,5.35746-.34472.28698-1.90888,1.2061-3.47591,2.0425-2.78007,1.48385-3.94019,2.53883-3.39326,3.08575 .14898.14898 2.00665-.19459 4.12817-.76348 2.47581-.6639 3.98857-.90308 4.22383-.66782 1.11404,1.11404-2.72468,6.5918-5.8926,8.40857-2.38842,1.36975-3.50526,1.44824-4.22434.29689z" fill="#f1c80e" stroke="none"/>
<path d="m-8.85327,97.45389c.0021-2.41607 1.09-3.85825 4.65514-6.17105 1.72542-1.11933 4.84787-3.32555 6.93876-4.90271s3.84492-2.82428 3.89783-2.77137c.16889.16889-1.30441,4.19438-2.10514,5.75186-.42484.82634-1.25857,1.95517-1.85274,2.50852-1.24058,1.15535-5.2357,3.74417-8.96905,5.81191l-2.56622,1.42132 .0014-1.64849h-1e-006z" fill="#f1c80e" stroke="none"/>
<path d="m-8.09433,89.22941c0-.91403 2.14642-2.91585 6.14857-5.73438 5.0372-3.54746 5.8585-4.99563 5.55096-9.78781-.15353-2.3923-.46261-3.37757-2.14517-6.83824-2.18739-4.49899-2.1537-5.08971.29025-5.08971 3.7481,0 7.12427,6.33139 7.29821,13.68649l.04046,1.71081 .59094-1.71081c.43078-1.24712.60091-3.35948.62773-7.79369l.03679-6.08288 1.41464-.69135c1.22334-.59786 1.5575-.62357 2.47117-.19009 1.84272.87426 2.44566,2.77027 2.44566,7.69071 0,2.54744-.18089,4.68473-.43698,5.16324-.24034.44907-1.92154,1.78131-3.736,2.96053s-6.03632,4.10474-9.38191,6.50117c-9.73402,6.97242-11.21532,7.79209-11.21532,6.20601z" fill="#a05a2c" stroke="none"/>
<path d="m18.14221,72.90367c.002-.15909.28099-1.14466.61938-2.19016 .40965-1.26562.64803-3.57329.71328-6.90507 .0539-2.75229.20907-5.18386.34481-5.40349 .51761-.83752 2.91761-1.18257 4.27641-.61483 1.71913.7183 2.40597,2.43448 2.40597,6.01171 0,2.29005-.15762,3.03608-.8554,4.04871-.8016,1.16329-7.5134,5.68268-7.50445,5.05312z" fill="#a05a2c" stroke="none"/>
<path d="m28.20662,65.47283c.15223-.88141.39525-3.31662.54003-5.41158s.4056-4.03936.57959-4.32089c.22225-.3596.83458-.45346 2.0585-.3155 3.86698.43587 6.21689,5.54052 3.76036,8.16853-.88144.94297-3.91889,2.5366-5.93897,3.11595l-1.2763.36604 .27679-1.60256z" fill="#a05a2c" stroke="none"/>
<path d="m37.64269,61.91183c-.3363-.87638.50386-7.67832 1.02614-8.30763 .63186-.76135 3.97009-1.39078 5.09924-.96148 1.18317.44984 1.58845,1.22668 1.91955,3.67941 .40406,2.99323-.28141,3.98554-3.60382,5.21704-3.13286,1.16124-4.10713,1.24299-4.44111.37265z" fill="#a05a2c" stroke="none"/>
<path d="m47.23112,57.69234c.4381-4.64975.54724-5.35152.97998-6.30128 .49754-1.09197 2.41789-2.15773 3.88794-2.15773 1.73564,0 2.53635,1.5737 2.53635,4.98485 0,2.67385-.0882,3.03869-.8554,3.53669-.64556.41906-5.98229,2.12351-6.64883,2.12351-.0583,0-.0133-.98372.1-2.18604z" fill="#a05a2c" stroke="none"/>
<path d="m57.97442,56.97653c-.84115-.2455-1.1893-2.12904-.98541-5.33112 .13804-2.16789.30423-2.63848 1.20553-3.41375 .81871-.70422 1.48838-.89923 3.08805-.89923 2.21286,0 3.23749.62307 3.23749,1.9687 0,1.43253-1.23027,5.88638-1.85344,6.7099-.62564.82677-3.28947,1.37489-4.69222.96548z" fill="#a05a2c" stroke="none"/>
<path d="m101.01738,72.93878c-2.01143-.65561-3.42546-1.47464-3.44928-1.99787-.0152-.33417-.058-1.46298-.095-2.50848l-.0674-1.9009-1.61576.12774c-1.36111.1076-1.61547.01772-1.61385-.57027 .003-.94281 2.70837-4.46223 3.55615-4.6255 1.69638-.32669 5.46233,5.40829 5.8583,8.92133 .26375,2.34001-.59982,3.19714-2.57312,2.55395z" fill="#a05a2c" stroke="none"/>
<path d="m97.81536,157.19459c-1.65655-1.24914-3.15775-2.27117-3.33598-2.27117s-.48668.4277-.68543.95045c-.46668,1.22748-1.51924,1.21557-2.69003-.0304-.78372-.83407-.92168-1.35735-.92168-3.4959 0-2.36596.0563-2.52906.95045-2.75221 1.07462-.2682 1.07496-.27406.24758-4.20291-1.73391-8.23347-1.91274-49.29589-.24171-55.50161 .22034-.8183 1.24915-2.5949 2.28623-3.94798 2.02083-2.63658 4.17096-5.8975 4.17096-6.32573 0-.14407-.93824-.37917-2.08499-.52245-2.36737-.29578-2.70351-.59308-2.05242-1.8152 .69489-1.30432 2.77106-4.06313 3.07042-4.07997 .44294-.02491 4.37182,7.21022 5.66928,10.44013 .67196,1.67279 1.23722,3.72577 1.25613,4.56216l.0344,1.52072-3.13649-.03997c-1.72507-.02199-3.13649.04646-3.13649.15211s.86965,1.54779 1.93255,3.20475c3.23255,5.03925 8.71069,17.62367 8.10113,18.60996-.10704.17319-2.66502-.98285-5.68442-2.56898s-5.4898-2.78573-5.4898-2.66577 1.1548,1.59905 2.56622,3.28687 3.46026,4.53394 4.55298,6.32471c3.11399,5.10328 5.1505,11.09448 3.70691,10.90534-.20413-.0268-1.05548-.16947-1.89187-.31715l-1.52072-.26852 1.6269,1.183c1.75507,1.27621 3.00095,3.36881 2.61089,4.3853-.33596.8755-1.17.56667-6.13869-2.27299-2.30009-1.31453-4.23444-2.34154-4.29855-2.28225s.57854,1.24346 1.42809,2.63147c2.078,3.39504 4.37248,7.98265 5.13113,10.25924 1.27237,3.81818 1.23468,7.07195-.0819,7.06839-.36194-.001-2.77196-1.02747-5.35559-2.28108s-4.85046-2.2793-5.03739-2.2793-.33987.23324-.33987.51831c0,.91968 4.49032,9.67442 6.45647,12.58812 2.95404,4.3777 2.66787,4.60505-1.6747,1.3305z" fill="#a05a2c" stroke="none"/>
<path d="m49.2606,155.39289c-4.62534-5.94534-4.73187-6.38153-1.46845-6.01231 2.08792.23622 2.28108.19606 2.28108-.47434 0-.40282-1.38384-2.7982-3.07521-5.32306s-2.96438-4.76998-2.82891-4.98917 .6639-.39852 1.17431-.39852c1.04618,0 1.20091-.76057.51703-2.54146-.62502-1.62761-1.48882-6.91016-1.4894-9.1084-.00053-2.01198.31618-2.4168 1.8908-2.4168 2.01463,0 .8452-2.62931-3.19667-7.1873-2.70672-3.05235-3.02317-3.83793-1.546-3.83793 1.15055,0 1.19056-.35257.18506-1.63085-1.17949-1.49948-4.17448-3.55555-8.40809-5.77219l-3.85344-2.0176 1.66616-.28024c4.45432-.74919 10.46571-3.31333 13.84596-5.90595 2.33244-1.78896 4.73074-2.4587 11.04878-3.08542 2.60002-.25791 4.67448-.563 4.60991-.67798-1.46589-2.61044-3.05136-6.47042-3.377-8.22164-.33685-1.81149-.29538-3.03155.2119-6.23414 .96585-6.09772 2.02142-8.02758 8.92819-16.32308 5.95762-7.15549 8.85235-11.49183 12.29674-18.42062 2.44667-4.92176 4.27209-10.51547 5.04192-15.45011 .34252-2.19554.66489-4.24851.71639-4.56216 .1194-.7272 3.89074,6.72158 5.68927,11.23689 2.57764,6.4713 3.18278,12.07801 1.78749,16.56112-.40975,1.31652-.68074,2.45794-.60219,2.53649s1.48305-.63571 3.12112-1.58724c2.12508-1.23442 3.0116-1.58019 3.0945-1.20695 .1884.84819-1.77231,6.29727-3.16587,8.79838-.70867,1.27191-2.21344,3.60174-3.34393,5.1774l-2.05544,2.86485 2.43417.22731c1.3388.12502 2.61713.34038 2.84075.47859 1.06941.66093-.6751,4.29534-4.29194,8.94159l-1.06916,1.37346 2.13574.22043c3.89566.40207 3.74401.82086-2.70685,7.47502-4.91789,5.07288-6.92487,7.48918-6.54011,7.87395 .13039.13038 1.05242-.0295 2.04896-.35534 1.49642-.48924 1.94431-.50725 2.57227-.10342 .94977.61077.95772,1.94683.077,12.93704-1.12195,14.0007-1.03046,13.54829-2.57289,12.72281-.44042-.23571-.86513-.36421-.94378-.28555s.28308,1.67501.80384,3.54746c2.77351,9.97241 5.02454,27.92609 3.50136,27.92609-.62467,0-2.09593-1.02446-3.95467-2.75371l-1.18823-1.10545-.26913,3.23088c-.14802,1.77698-.49099,3.53428-.76214,3.90511-.46381.63429-.64195.6009-3.0074-.56361-3.25822-1.60401-8.13026-5.22655-9.7772-7.26971-2.74614-3.40681-3.27061-3.92425-3.70524-3.65563-.24314.15027-.44302.73359-.44419,1.29627-.003,1.59782-.74473,3.87441-1.26179,3.87441-.25729,0-.84834-.26653-1.31343-.5923s-1.01633-.48679-1.22498-.35783-1.06021,1.63582-1.89236,3.3486c-1.46118,3.00752-2.20504,3.99324-4.99949,6.62505l-1.30583,1.22984-2.8793-3.70101zm25.42763-62.44436c.90437-.71137 1.03898-.72309 1.89126-.16465 1.18693.7777 1.51181.50903 4.15832-3.43885l2.04067-3.04412-2.53248-.19009-2.53248-.19009 3.28796-3.51112c1.80838-1.93112 3.28797-3.66256 3.28797-3.84765s-1.5825-.0064-3.51667.39716c-4.95208,1.03316-9.11787,1.05382-10.46551.05191-2.27142-1.6887-1.50281-4.39005 3.26749-11.48378 3.62928-5.39698 6.05862-9.55711 7.86876-13.47493 2.3347-5.05316 1.40359-4.65796-2.53635,1.07651-2.01231,2.92886-5.92885,8.14684-8.70342,11.5955s-5.47291,7.20188-5.99631,8.34048c-1.67718,3.64857-1.53935,9.283.34882,14.26027 1.22071,3.21783 1.17284,3.20107 3.44519,1.20567 2.09356-1.83841 3.53756-2.4954 4.14642-1.88654 .19178.19178.45041,1.19719.57473,2.23424 .38401,3.2034.44424,3.26683 1.96563,2.0701z" fill="#f1c80e" stroke="none"/>
<path d="m50.6435,90.73253c-2.95804-1.40101-6.88379-3.93494-10.45495-6.7483-4.76741-3.75576-5.63538-4.3486-7.70356-5.26177-2.68387-1.18501-4.62578-1.45641-7.12347-.99554-2.59961.47968-8.64112,3.46586-10.10655,4.99544l-1.0939,1.14179 1.33167-.55641c2.22843-.9311 7.47596-1.75911 11.14636-1.75879 4.67484.00042 6.92248,1.0461 11.20098,5.21115 3.01918,2.93912 3.81663,4.13336 2.44351,3.65933-.36592-.12632-2.63274-1.08864-5.03738-2.13848-5.3768-2.34745-7.46347-2.92019-10.66022-2.92599-3.07892-.0056-5.82912.69435-10.4411,2.65731-4.23453,1.80231-5.71748,1.93782-6.33659.57903-.64897-1.42433 1.38513-5.29509 4.074-7.75256 5.18388-4.73777 20.38318-12.09473 35.06481-16.9725 4.43125-1.47222 16.14187-4.70958 16.37344-4.52637 .0721.05705-1.5269,2.46837-3.55335,5.3585-3.82901,5.46096-6.72093,10.86687-7.38709,13.80884-.63553,2.80665-.47639,7.15759.35929,9.82351 .8057,2.5703.92896,3.48298.47032,3.48249-.15682-.00017-1.31162-.48647-2.56622-1.08068z" fill="#f1c80e" stroke="none"/>
<path d="m21.47329,95.40432c-3.96626-.96146-9.06795-3.96904-8.30072-4.8935 1.09446-1.31874 6.67742-1.86904 8.64411-.85202 1.97796,1.02284 2.60501,2.53489 1.05123,2.53489-.6654,0-.71733.81896-.0916,1.44468 .69801.69801 3.393.54037 4.73324-.27686 .65867-.40163 1.74917-1.53195 2.42335-2.51183 1.1233-1.63267 1.32964-1.76474 2.46839-1.57995 .68344.11091 1.96094.65511 2.83888,1.20933 1.56971.99091 1.58463,1.02055.89667,1.78074-2.79656,3.09016-9.21222,4.46596-14.66354,3.14452z" fill="#fff" stroke="none"/>
<path d="m64.90026,55.16617c0-1.46544 1.44931-5.73951 2.32277-6.84994 .69798-.88734 1.03619-1.00695 2.56714-.90785 2.15502.1395 2.19942.55978.37823,3.58072-2.67708,4.44067-5.26814,6.4951-5.26814,4.17706z" fill="#a05a2c" stroke="none"/>
<path d="m44.23031,44.03081c.867-4.78649 1.21495-5.23617 3.18166-4.11189 1.30258.74462 2.52803.70359 2.83883-.09504 .1424-.36592.66061-3.46056 1.15157-6.87697s.99221-6.3112 1.11389-6.43288c1.12927-1.12927 8.20202,11.59187 8.20202,14.75225 0,1.32469-.61875,1.69392-3.42162,2.04182-1.77457.22026-11.02786,2.6782-12.98021,3.44791-.57423.22639-.58114.0076-.0861-2.7252z" fill="#f1c80e" stroke="none"/>
<path d="m-28.61197,97.65595c-.97345-3.15168-.96622-3.49545.08295-3.94053 .98938-.41972 10.55275-2.28208 11.71864-2.28208 .63775,0 .73409.15912.51791.85541-.44713,1.44013-1.65568,2.88863-3.42682,4.1072-1.65603,1.13938-2.47694,1.53653-6.25026,3.02383l-1.86998.73708-.77245-2.5009z" fill="#a05a2c" stroke="none"/>
</g>
</g>
</g>
</svg>
